<svg width="950" xmlns="http://www.w3.org/2000/svg" height="600" id="screenshot-68e5d62b-e021-80a2-8007-0beebce45906" viewBox="0 0 950 600" xmlns:xlink="http://www.w3.org/1999/xlink" fill="none" version="1.1"><g id="shape-68e5d62b-e021-80a2-8007-0beebce45906" rx="0" ry="0"><g id="shape-68e5d62b-e021-80a2-8007-0beea15cc1be"><defs><linearGradient id="fill-color-gradient-render-7-0" x1="0.07862068534390915" y1="0.01730280822871208" x2="0.9349455019906492" y2="0.9334782841034501" gradientTransform=""><stop offset="0.16" stop-color="#ffd100" stop-opacity="1"/><stop offset="0.89" stop-color="#ffed31" stop-opacity="1"/></linearGradient><pattern patternUnits="userSpaceOnUse" x="0" y="0" width="414.8471615720523" height="388.9789303079417" patternTransform="matrix(1.000000, 0.000000, 0.000000, 1.000000, 0.000000, 0.000000)" id="fill-0-render-7"><g><rect width="414.8471615720523" height="388.9789303079417" style="fill: url(&quot;#fill-color-gradient-render-7-0&quot;);"/></g></pattern></defs><g class="fills" id="fills-68e5d62b-e021-80a2-8007-0beea15cc1be"><path d="M207.423583984375,0C321.90380859375,0,414.84716796875,87.147705078125,414.84716796875,194.489501953125C414.84716796875,301.8311767578125,321.90380859375,388.9788818359375,207.423583984375,388.9788818359375C92.943359375,388.9788818359375,0,301.8311767578125,0,194.489501953125C0,87.147705078125,92.943359375,0,207.423583984375,0" fill="url(#fill-0-render-7)"/></g></g><g id="shape-68e5d62b-e021-80a2-8007-0bf91e7906b2"><defs><linearGradient id="fill-color-gradient-render-8-0" x1="0.5" y1="0" x2="0.5" y2="1" gradientTransform=""><stop offset="0" stop-color="#f7f7ff" stop-opacity="1"/><stop offset="1" stop-color="#d6d6d6" stop-opacity="1"/></linearGradient><pattern patternUnits="userSpaceOnUse" x="39.41048034934465" y="60.291734197730875" width="910.5895196506551" height="539.7082658022691" patternTransform="matrix(1.000000, 0.000000, 0.000000, 1.000000, 0.000000, 0.000000)" id="fill-0-render-8"><g><rect width="910.5895196506551" height="539.7082658022691" style="fill: url(&quot;#fill-color-gradient-render-8-0&quot;);"/></g></pattern></defs><g class="fills" id="fills-68e5d62b-e021-80a2-8007-0bf91e7906b2"><path d="M205.349365234375,599.9873046875C113.574462890625,598.873291015625,39.4105224609375,523.923828125,39.4105224609375,431.7666015625C39.4105224609375,348.75830078125,99.5802001953125,279.710693359375,178.5926513671875,266.0052490234375C198.79541015625,149.452392578125,307.168701171875,60.291748046875,437.6636962890625,60.291748046875C557.6304931640625,60.291748046875,658.901123046875,135.6458740234375,690.1246337890625,238.3956298828125C692.73779296875,238.321533203125,695.349609375,238.2496337890625,697.9803466796875,238.2496337890625C759.689697265625,238.2496337890625,810.9693603515625,277.8153076171875,820.75244140625,329.637451171875C821.639404296875,329.6688232421875,822.5543212890625,329.65966796875,823.4715576171875,329.65966796875C893.3045654296875,329.65966796875,950,382.384033203125,950,447.3258056640625C950,457.7294921875,948.544921875,467.819580078125,945.81396484375,477.4296875C931.4310302734375,547.349365234375,869.4737548828125,600,795.316162109375,600L207.423583984375,600" fill="url(#fill-0-render-8)"/></g></g></g></svg>