<svg width="985.2" xmlns="http://www.w3.org/2000/svg" height="873.699" id="screenshot-22afbafa-579e-80a5-8007-0c27e502813b" viewBox="0 -273.699 985.2 873.699" xmlns:xlink="http://www.w3.org/1999/xlink" fill="none" version="1.1"><g id="shape-22afbafa-579e-80a5-8007-0c27e502813b" rx="0" ry="0"><g id="shape-0e5a2721-fdfe-805e-8007-0c2761540679"><defs><radialGradient id="fill-color-gradient-render-2-0" cx="0.5" cy="0.5" r="0.5" gradientTransform="matrix(-1.000000, 0.000000, -0.000000, -1.000000, 1.000000, 1.000000)"><stop offset="0" stop-color="#ffffff" stop-opacity="1"/><stop offset="1" stop-color="#8a8a8b" stop-opacity="0"/></radialGradient><pattern patternUnits="userSpaceOnUse" x="0" y="0" width="600" height="600" patternTransform="matrix(1.000000, 0.000000, 0.000000, 1.000000, 0.000000, 0.000000)" id="fill-0-render-2"><g><rect width="600" height="600" style="fill: url(&quot;#fill-color-gradient-render-2-0&quot;);"/></g></pattern></defs><g class="fills" id="fills-0e5a2721-fdfe-805e-8007-0c2761540679"><path d="M182.09375,0C171.191162109375,34.36572265625,165.338623046875,70.743408203125,165.338623046875,108.385009765625C165.338623046875,319.262939453125,349.0224609375,490.46923828125,575.269287109375,490.46923828125C583.572509765625,490.46923828125,591.818359375,490.238525390625,600,489.783935546875C537.359130859375,557.264404296875,444.796142578125,600,341.60888671875,600C153.06982421875,600,0,457.328125,0,281.596435546875C0,159.5859375,73.78759765625,53.51220703125,182.00341796875,0.060791015625" fill="url(#fill-0-render-2)"/></g></g><g id="shape-0e5a2721-fdfe-805e-8007-0c2756fafc87"><g class="fills" id="fills-0e5a2721-fdfe-805e-8007-0c2756fafc87"><path d="M565.199951171875,465.336669921875C512.98779296875,521.611572265625,435.846435546875,557.2412109375,349.848876953125,557.2412109375C192.746826171875,557.2412109375,65.2001953125,438.3359375,65.2001953125,291.8779296875C65.2001953125,190.1923828125,126.684326171875,101.788330078125,216.856201171875,57.240966796875C207.8466796875,85.831298828125,202.969970703125,116.149169921875,202.969970703125,147.5205078125C202.969970703125,323.27001953125,356.0263671875,465.956298828125,544.548583984375,465.956298828125C551.448486328125,465.956298828125,558.30078125,465.76513671875,565.10009765625,465.38818359375" style="fill: rgb(255, 255, 255); fill-opacity: 1;"/></g></g></g></svg>