<svg width="986" xmlns="http://www.w3.org/2000/svg" height="889.599" id="screenshot-22afbafa-579e-80a5-8007-0c2877a247cb" viewBox="0 -234.612 986 889.599" xmlns:xlink="http://www.w3.org/1999/xlink" fill="none" version="1.1"><g id="shape-22afbafa-579e-80a5-8007-0c2877a247cb" rx="0" ry="0"><g id="shape-22afbafa-579e-80a5-8007-0c2889d996ec" rx="0" ry="0"><g id="shape-22afbafa-579e-80a5-8007-0c2889d996ed"><defs><radialGradient id="fill-color-gradient-render-3-0" cx="0.5" cy="0.5" r="0.5" gradientTransform="matrix(-1.000000, 0.000000, -0.000000, -1.000000, 1.000000, 1.000000)"><stop offset="0" stop-color="#ffffff" stop-opacity="1"/><stop offset="1" stop-color="#8a8a8b" stop-opacity="0"/></radialGradient><pattern patternUnits="userSpaceOnUse" x="0" y="0" width="598.75830078125" height="514.273193359375" patternTransform="matrix(1.000000, 0.000000, 0.000000, 1.000000, 0.000000, 0.000000)" id="fill-0-render-3"><g><rect width="598.75830078125" height="514.273193359375" style="fill: url(&quot;#fill-color-gradient-render-3-0&quot;);"/></g></pattern></defs><g class="fills" id="fills-22afbafa-579e-80a5-8007-0c2889d996ed"><path d="M598.75830078125,419.7841796875C536.2303466796875,477.642822265625,443.8616943359375,514.273193359375,340.89111328125,514.273193359375C152.7481689453125,514.273193359375,0,391.983154296875,0,241.35595703125C0,136.745361328125,73.675048828125,45.802734375,181.71435546875,0C170.838134765625,29.40869140625,164.9913330078125,60.6064453125,164.9913330078125,92.888916015625C164.9913330078125,273.6416015625,348.2890625,420.3896484375,574.0606689453125,420.3896484375C582.346435546875,420.3896484375,590.5750732421875,420.19189453125,598.739501953125,419.80224609375" fill="url(#fill-0-render-3)"/></g></g><g id="shape-22afbafa-579e-80a5-8007-0c2889d996ee"><g class="fills" id="fills-22afbafa-579e-80a5-8007-0c2889d996ee"><path d="M564.0126953125,398.84765625C511.9102783203125,447.083251953125,434.9307861328125,477.622802734375,349.1138916015625,477.622802734375C192.3419189453125,477.622802734375,65.0631103515625,375.7041015625,65.0631103515625,250.168701171875C65.0631103515625,162.984375,126.4534912109375,87.191162109375,216.478271484375,49.018310546875C207.4156494140625,73.528076171875,202.543701171875,99.52880859375,202.543701171875,126.43359375C202.543701171875,277.076171875,355.2783203125,399.378662109375,543.404541015625,399.378662109375C550.2899169921875,399.378662109375,557.1279296875,399.21484375,563.912841796875,398.891845703125" style="fill: rgb(255, 255, 255); fill-opacity: 1;"/></g></g></g><g id="shape-0e5a2721-fdfe-805e-8007-0c27118b33cc"><defs><linearGradient id="fill-color-gradient-render-5-0" x1="0.692883708510038" y1="0.20251193468571516" x2="0.11232948951450918" y2="1.029796706088133" gradientTransform=""><stop offset="0.22" stop-color="#f7f7ff" stop-opacity="1"/><stop offset="0.87" stop-color="#6a6d8b" stop-opacity="1"/></linearGradient><pattern patternUnits="userSpaceOnUse" x="110" y="116.987548828125" width="876" height="538" patternTransform="matrix(1.000000, 0.000000, 0.000000, 1.000000, 0.000000, 0.000000)" id="fill-0-render-5"><g><rect width="876" height="538" style="fill: url(&quot;#fill-color-gradient-render-5-0&quot;);"/></g></pattern></defs><g class="fills" id="fills-0e5a2721-fdfe-805e-8007-0c27118b33cc"><path d="M269.635498046875,654.97509765625C181.346923828125,653.8642578125,110,579.152099609375,110,487.28662109375C110,404.541015625,167.88427734375,335.7119140625,243.895263671875,322.0498046875C263.33056640625,205.865966796875,367.5872802734375,116.987548828125,493.125244140625,116.987548828125C608.5350341796875,116.987548828125,705.958740234375,192.103271484375,735.9962158203125,294.527587890625C738.5101318359375,294.453857421875,741.022705078125,294.382080078125,743.5535888671875,294.382080078125C802.9188232421875,294.382080078125,852.2506103515625,333.822509765625,861.6619873046875,385.480712890625C862.515380859375,385.511962890625,863.3956298828125,385.5029296875,864.2779541015625,385.5029296875C931.4581298828125,385.5029296875,986,438.060302734375,986,502.796630859375C986,513.67236328125,984.4605712890625,524.204345703125,981.58056640625,534.200927734375C966.7061767578125,603.197509765625,905.2744140625,654.987548828125,831.8419189453125,654.987548828125L271.6309814453125,654.987548828125" fill="url(#fill-0-render-5)"/></g></g></g></svg>