<svg width="878" xmlns="http://www.w3.org/2000/svg" height="797.981" id="screenshot-0e5a2721-fdfe-805e-8007-0c26da206c61" viewBox="0 0 878 797.981" xmlns:xlink="http://www.w3.org/1999/xlink" fill="none" version="1.1"><g id="shape-0e5a2721-fdfe-805e-8007-0c26da206c61" rx="0" ry="0"><g id="shape-0e5a2721-fdfe-805e-8007-0c26d57043dd" rx="0" ry="0"><g id="shape-68e5d62b-e021-80a2-8007-0becdb14dba6"><defs><linearGradient id="fill-color-gradient-render-12-0" x1="0.644272316453475" y1="-0.28298045467649696" x2="0.20458543380478256" y2="1.3426370624170312" gradientTransform=""><stop offset="0.28" stop-color="#535353" stop-opacity="1"/><stop offset="0.8" stop-color="#0e0e0e" stop-opacity="1"/></linearGradient><pattern patternUnits="userSpaceOnUse" x="0" y="0" width="878" height="555" patternTransform="matrix(1.000000, 0.000000, 0.000000, 1.000000, 0.000000, 0.000000)" id="fill-0-render-12"><g><rect width="878" height="555" style="fill: url(&quot;#fill-color-gradient-render-12-0&quot;);"/></g></pattern></defs><g class="fills" id="fills-68e5d62b-e021-80a2-8007-0becdb14dba6"><path d="M165,554.970947265625C164.00216674804688,554.990234375,163.00213623046875,555,162,555C72.58976745605469,555,0,477.481201171875,0,382C0,296.6396484375,58.016353607177734,225.6357421875,134.20095825195312,211.5421142578125C153.68063354492188,91.686767578125,258.17535400390625,0,384,0C499.6732177734375,0,597.3193969726562,77.4891357421875,627.4254150390625,183.1500244140625C629.945068359375,183.073974609375,632.46337890625,183,635,183C694.5008544921875,183,743.9452514648438,223.6866455078125,753.378173828125,276.9771728515625C754.224609375,277.0093994140625,755.1112060546875,277,756,277C821.64501953125,277,875.2501220703125,328.532958984375,877.8975219726562,393L878,393L878,398L878,415C878,492.26806640625,815.2681274414062,555,738,555L165,555L165,554.970947265625" fill="url(#fill-0-render-12)"/></g></g></g><g id="shape-0e5a2721-fdfe-805e-8007-0c26e23a25d1" rx="0" ry="0"><g id="shape-0e5a2721-fdfe-805e-8007-0c26e23a25d2"><defs><linearGradient id="fill-color-gradient-render-14-0" x1="0.5" y1="0" x2="0.5" y2="1" gradientTransform=""><stop offset="0" stop-color="#003fff" stop-opacity="1"/><stop offset="1" stop-color="#88a3f7" stop-opacity="1"/></linearGradient><pattern patternUnits="userSpaceOnUse" x="109.04150262129292" y="562.19859038799" width="56.00000000000023" height="97.99999999999909" patternTransform="matrix(0.819152, 0.573576, -0.573576, 0.819152, 375.352785, 31.930239)" id="fill-0-render-14"><g><rect width="56.00000000000023" height="97.99999999999909" style="fill: url(&quot;#fill-color-gradient-render-14-0&quot;);"/></g></pattern></defs><g class="fills" id="fills-0e5a2721-fdfe-805e-8007-0c26e23a25d2"><path d="M141.80792236328125,604.391357421875C154.466796875,613.25537109375,157.37954711914062,630.96923828125,148.30833435058594,643.92431640625C139.23712158203125,656.87939453125,121.5950927734375,660.200927734375,108.93622589111328,651.337158203125C96.27735900878906,642.47314453125,93.3646011352539,624.75927734375,102.43582153320312,611.80419921875C111.50703430175781,598.84912109375,129.14906311035156,595.527587890625,141.80792236328125,604.391357421875M106.1817626953125,607.430908203125L159.7332763671875,567.27001953125L153.3846435546875,631.304931640625L106.1817626953125,607.430908203125" fill="url(#fill-0-render-14)"/></g></g><g id="shape-0e5a2721-fdfe-805e-8007-0c26e23a25d3"><defs><linearGradient id="fill-color-gradient-render-15-0" x1="0.5" y1="0" x2="0.5" y2="1" gradientTransform=""><stop offset="0" stop-color="#003fff" stop-opacity="1"/><stop offset="1" stop-color="#88a3f7" stop-opacity="1"/></linearGradient><pattern patternUnits="userSpaceOnUse" x="242.42213735631435" y="626.4907372817702" width="81" height="163" patternTransform="matrix(0.819152, 0.573576, -0.573576, 0.819152, 457.252694, -34.238794)" id="fill-0-render-15"><g><rect width="81" height="163" style="fill: url(&quot;#fill-color-gradient-render-15-0&quot;);"/></g></pattern></defs><g class="fills" id="fills-0e5a2721-fdfe-805e-8007-0c26e23a25d3"><path d="M290.84991455078125,696.668701171875C309.1600646972656,709.489501953125,311.77618408203125,737.392578125,296.68841552734375,758.93994140625C281.6006774902344,780.487548828125,254.48574829101562,787.572509765625,236.17559814453125,774.751708984375C217.86544799804688,761.930908203125,215.24935913085938,734.02783203125,230.3371124267578,712.48046875C245.4248504638672,690.932861328125,272.539794921875,683.847900390625,290.84991455078125,696.668701171875M236.4681396484375,705.13671875L321.8385009765625,635.74755859375L305.6788330078125,738.33349609375L236.4681396484375,705.13671875" fill="url(#fill-0-render-15)"/></g></g><g id="shape-0e5a2721-fdfe-805e-8007-0c26e23a25d4"><defs><linearGradient id="fill-color-gradient-render-16-0" x1="0.5" y1="0" x2="0.5" y2="1" gradientTransform=""><stop offset="0" stop-color="#003fff" stop-opacity="1"/><stop offset="1" stop-color="#88a3f7" stop-opacity="1"/></linearGradient><pattern patternUnits="userSpaceOnUse" x="244.37184335382312" y="435.87184335382244" width="60.99999999999977" height="114.00000000000045" patternTransform="matrix(0.819152, 0.573576, -0.573576, 0.819152, 332.409686, -68.525147)" id="fill-0-render-16"><g><rect width="60.99999999999977" height="114.00000000000045" style="fill: url(&quot;#fill-color-gradient-render-16-0&quot;);"/></g></pattern></defs><g class="fills" id="fills-0e5a2721-fdfe-805e-8007-0c26e23a25d4"><path d="M280.41644287109375,484.953369140625C294.20556640625,494.608642578125,296.83349609375,514.682373046875,286.2812805175781,529.752685546875C275.72918701171875,544.822509765625,255.96710205078125,549.21875,242.17796325683594,539.5634765625C228.38885498046875,529.908203125,225.76092529296875,509.83447265625,236.31300354003906,494.764404296875C246.86520385742188,479.6943359375,266.6273193359375,475.298095703125,280.41644287109375,484.953369140625M240.63671875,489.6533203125L301.6689453125,442.051513671875L292.373046875,515.203369140625L240.63671875,489.6533203125" fill="url(#fill-0-render-16)"/></g></g><g id="shape-0e5a2721-fdfe-805e-8007-0c26e23a25d5"><defs><linearGradient id="fill-color-gradient-render-17-0" x1="0.5" y1="0" x2="0.5" y2="1" gradientTransform=""><stop offset="0" stop-color="#003fff" stop-opacity="1"/><stop offset="1" stop-color="#88a3f7" stop-opacity="1"/></linearGradient><pattern patternUnits="userSpaceOnUse" x="455.1215441230247" y="474.64590012785993" width="91" height="193" patternTransform="matrix(0.819152, 0.573576, -0.573576, 0.819152, 418.132213, -183.854153)" id="fill-0-render-17"><g><rect width="91" height="193" style="fill: url(&quot;#fill-color-gradient-render-17-0&quot;);"/></g></pattern></defs><g class="fills" id="fills-0e5a2721-fdfe-805e-8007-0c26e23a25d5"><path d="M510.00836181640625,557.740234375C530.5789794921875,572.143798828125,532.7760009765625,604.551513671875,514.911376953125,630.064697265625C497.0467529296875,655.578125,465.8420104980469,664.597900390625,445.2713928222656,650.194091796875C424.7007141113281,635.79052734375,422.50390625,603.382568359375,440.3685302734375,577.869384765625C458.2331237792969,552.35595703125,489.43768310546875,543.33642578125,510.00836181640625,557.740234375M447.5877685546875,569.14599609375L547.1748046875,485.938720703125L525.7774658203125,605.820556640625L447.5877685546875,569.14599609375" fill="url(#fill-0-render-17)"/></g></g><g id="shape-0e5a2721-fdfe-805e-8007-0c26e23a25d6"><defs><linearGradient id="fill-color-gradient-render-18-0" x1="0.5" y1="0" x2="0.5" y2="1" gradientTransform=""><stop offset="0" stop-color="#003fff" stop-opacity="1"/><stop offset="1" stop-color="#88a3f7" stop-opacity="1"/></linearGradient><pattern patternUnits="userSpaceOnUse" x="665.922095885517" y="517.4220958855171" width="50.00000000000023" height="110.99999999999955" patternTransform="matrix(0.819152, 0.573576, -0.573576, 0.819152, 453.566463, -292.684844)" id="fill-0-render-18"><g><rect width="50.00000000000023" height="110.99999999999955" style="fill: url(&quot;#fill-color-gradient-render-18-0&quot;);"/></g></pattern></defs><g class="fills" id="fills-0e5a2721-fdfe-805e-8007-0c26e23a25d6"><path d="M696.32080078125,565.2119140625C707.6233520507812,573.1259765625,708.4579467773438,591.46435546875,698.1834106445312,606.137939453125C687.9088745117188,620.8115234375,670.3911743164062,626.299072265625,659.0885620117188,618.385009765625C647.7860717773438,610.470947265625,646.9512939453125,592.132568359375,657.225830078125,577.459228515625C667.5003662109375,562.78564453125,685.0182495117188,557.2978515625,696.32080078125,565.2119140625M661.3587036132812,572.4287109375L717.9221801757812,524.074951171875L704.5381469726562,592.267822265625L661.3587036132812,572.4287109375" fill="url(#fill-0-render-18)"/></g></g><g id="shape-0e5a2721-fdfe-805e-8007-0c26e23a25d7"><defs><linearGradient id="fill-color-gradient-render-19-0" x1="0.5" y1="0" x2="0.5" y2="1" gradientTransform=""><stop offset="0" stop-color="#003fff" stop-opacity="1"/><stop offset="1" stop-color="#88a3f7" stop-opacity="1"/></linearGradient><pattern patternUnits="userSpaceOnUse" x="517.312293324708" y="674.3023493668156" width="50" height="110.99999999999955" patternTransform="matrix(0.819152, 0.573576, -0.573576, 0.819152, 516.673500, -179.074290)" id="fill-0-render-19"><g><rect width="50" height="110.99999999999955" style="fill: url(&quot;#fill-color-gradient-render-19-0&quot;);"/></g></pattern></defs><g class="fills" id="fills-0e5a2721-fdfe-805e-8007-0c26e23a25d7"><path d="M547.7109375,722.09228515625C559.0135498046875,730.00634765625,559.8482666015625,748.344482421875,549.57373046875,763.01806640625C539.2991943359375,777.691650390625,521.7813110351562,783.179443359375,510.478759765625,775.265380859375C499.1761779785156,767.351318359375,498.3415832519531,749.012939453125,508.6161193847656,734.33935546875C518.890625,719.665771484375,536.4083862304688,714.17822265625,547.7109375,722.09228515625M512.7489013671875,729.30908203125L569.3123168945312,680.955322265625L555.9282836914062,749.148193359375L512.7489013671875,729.30908203125" fill="url(#fill-0-render-19)"/></g></g></g></g></svg>