<svg width="600" xmlns="http://www.w3.org/2000/svg" height="600" id="screenshot-68e5d62b-e021-80a2-8007-0bf41338e57c" viewBox="0 0 600 600" xmlns:xlink="http://www.w3.org/1999/xlink" fill="none" version="1.1"><g id="shape-68e5d62b-e021-80a2-8007-0bf41338e57c" rx="0" ry="0"><g id="shape-68e5d62b-e021-80a2-8007-0bf36c1c9206"><defs><radialGradient id="fill-color-gradient-render-2-0" cx="0.5" cy="0.5" r="0.5" gradientTransform="matrix(-1.000000, 0.000000, -0.000000, -1.000000, 1.000000, 1.000000)"><stop offset="0.44" stop-color="#ffd100" stop-opacity="0.3"/><stop offset="1" stop-color="#ffed31" stop-opacity="0"/></radialGradient><pattern patternUnits="userSpaceOnUse" x="0" y="0" width="600" height="600" patternTransform="matrix(1.000000, 0.000000, 0.000000, 1.000000, 0.000000, 0.000000)" id="fill-0-render-2"><g><rect width="600" height="600" style="fill: url(&quot;#fill-color-gradient-render-2-0&quot;);"/></g></pattern></defs><g class="fills" id="fills-68e5d62b-e021-80a2-8007-0bf36c1c9206"><path d="M300,0C465.57470703125,0,600,134.425537109375,600,300C600,465.574462890625,465.57470703125,600.000244140625,300,600.000244140625C134.42529296875,600.000244140625,0,465.574462890625,0,300C0,134.425537109375,134.42529296875,0,300,0" fill="url(#fill-0-render-2)"/></g></g><g id="shape-68e5d62b-e021-80a2-8007-0bf33b582c6b"><defs><linearGradient id="fill-color-gradient-render-3-0" x1="0.5" y1="0" x2="0.5" y2="1" gradientTransform=""><stop offset="0" stop-color="#ffd101" stop-opacity="1"/><stop offset="1" stop-color="#ffee31" stop-opacity="1"/></linearGradient><pattern patternUnits="userSpaceOnUse" x="100" y="100" width="400" height="400" patternTransform="matrix(1.000000, 0.000000, 0.000000, 1.000000, 0.000000, 0.000000)" id="fill-0-render-3"><g><rect width="400" height="400" style="fill: url(&quot;#fill-color-gradient-render-3-0&quot;);"/></g></pattern></defs><g class="fills" id="fills-68e5d62b-e021-80a2-8007-0bf33b582c6b"><path d="M300,100C410.383056640625,100,500,189.616943359375,500,300C500,410.383056640625,410.383056640625,500,300,500C189.616943359375,500,100,410.383056640625,100,300C100,189.616943359375,189.616943359375,100,300,100" fill="url(#fill-0-render-3)"/></g><g id="strokes-26ab6246-3643-80f8-8007-0c37ed930249-68e5d62b-e021-80a2-8007-0bf33b582c6b" class="strokes"><g class="inner-stroke-shape"><defs><clipPath id="inner-stroke-render-3-68e5d62b-e021-80a2-8007-0bf33b582c6b-0"><use href="#stroke-shape-render-3-68e5d62b-e021-80a2-8007-0bf33b582c6b-0"/></clipPath><path d="M300,100C410.383056640625,100,500,189.616943359375,500,300C500,410.383056640625,410.383056640625,500,300,500C189.616943359375,500,100,410.383056640625,100,300C100,189.616943359375,189.616943359375,100,300,100" id="stroke-shape-render-3-68e5d62b-e021-80a2-8007-0bf33b582c6b-0" style="fill: none; stroke-width: 20; stroke: rgb(0, 0, 0); stroke-opacity: 0;"/></defs><use href="#stroke-shape-render-3-68e5d62b-e021-80a2-8007-0bf33b582c6b-0" clip-path="url('#inner-stroke-render-3-68e5d62b-e021-80a2-8007-0bf33b582c6b-0')"/></g></g></g></g></svg>