<svg width="878" xmlns="http://www.w3.org/2000/svg" height="824" id="screenshot-68e5d62b-e021-80a2-8007-0c246000659b" viewBox="0 0 878 824" xmlns:xlink="http://www.w3.org/1999/xlink" fill="none" version="1.1"><g id="shape-68e5d62b-e021-80a2-8007-0c246000659b" rx="0" ry="0"><g id="shape-68e5d62b-e021-80a2-8007-0c249f3f5aeb"><defs><linearGradient id="fill-color-gradient-render-2-0" x1="0.644272316453475" y1="-0.28298045467649696" x2="0.20458543380478256" y2="1.3426370624170312" gradientTransform=""><stop offset="0.28" stop-color="#535353" stop-opacity="1"/><stop offset="0.8" stop-color="#0e0e0e" stop-opacity="1"/></linearGradient><pattern patternUnits="userSpaceOnUse" x="0" y="0" width="878" height="555" patternTransform="matrix(1.000000, 0.000000, 0.000000, 1.000000, 0.000000, 0.000000)" id="fill-0-render-2"><g><rect width="878" height="555" style="fill: url(&quot;#fill-color-gradient-render-2-0&quot;);"/></g></pattern></defs><g class="fills" id="fills-68e5d62b-e021-80a2-8007-0c249f3f5aeb"><path d="M165,554.970947265625C164.00216674804688,554.990234375,163.00213623046875,555,162,555C72.58976745605469,555,0,477.481201171875,0,382C0,296.639892578125,58.016353607177734,225.6357421875,134.20095825195312,211.5419921875C153.68063354492188,91.686767578125,258.17535400390625,0,384,0C499.6732177734375,0,597.3193969726562,77.4892578125,627.4254150390625,183.150146484375C629.945068359375,183.073974609375,632.46337890625,183,635,183C694.5008544921875,183,743.9452514648438,223.686767578125,753.378173828125,276.977294921875C754.224609375,277.009521484375,755.1112060546875,277,756,277C821.64501953125,277,875.2501220703125,328.532958984375,877.8975219726562,393L878,393L878,398L878,415C878,492.26806640625,815.2681274414062,555,738,555L165,555L165,554.970947265625" fill="url(#fill-0-render-2)"/></g></g><g id="shape-0e5a2721-fdfe-805e-8007-0c26d060a2c1" rx="0" ry="0"><g id="shape-68e5d62b-e021-80a2-8007-0c2530e1b978"><defs><linearGradient id="fill-color-gradient-render-4-0" x1="0.5" y1="0" x2="0.5" y2="1" gradientTransform=""><stop offset="0" stop-color="#003fff" stop-opacity="1"/><stop offset="1" stop-color="#88a3f7" stop-opacity="1"/></linearGradient><pattern patternUnits="userSpaceOnUse" x="109.04150262129292" y="549.5124948673465" width="56.00000000000023" height="97.99999999999909" patternTransform="matrix(0.819152, 0.573576, -0.573576, 0.819152, 368.076340, 29.635984)" id="fill-0-render-4"><g><rect width="56.00000000000023" height="97.99999999999909" style="fill: url(&quot;#fill-color-gradient-render-4-0&quot;);"/></g></pattern></defs><g class="fills" id="fills-68e5d62b-e021-80a2-8007-0c2530e1b978"><path d="M141.80789184570312,591.705322265625C154.4667510986328,600.5693359375,157.3795166015625,618.283203125,148.30828857421875,631.23828125C139.23721313476562,644.193115234375,121.59505462646484,647.514892578125,108.93618774414062,638.651123046875C96.2773208618164,629.787109375,93.36470031738281,612.072998046875,102.43578338623047,599.1181640625C111.50699615478516,586.1630859375,129.14901733398438,582.841552734375,141.80789184570312,591.705322265625M106.1817626953125,594.744873046875L159.7332763671875,554.583984375L153.3846435546875,618.618896484375L106.1817626953125,594.744873046875" fill="url(#fill-0-render-4)"/></g></g><g id="shape-0e5a2721-fdfe-805e-8007-0c26658fd54c"><defs><linearGradient id="fill-color-gradient-render-5-0" x1="0.5" y1="0" x2="0.5" y2="1" gradientTransform=""><stop offset="0" stop-color="#003fff" stop-opacity="1"/><stop offset="1" stop-color="#88a3f7" stop-opacity="1"/></linearGradient><pattern patternUnits="userSpaceOnUse" x="242.42213735631435" y="613.8046417611267" width="81" height="163" patternTransform="matrix(0.819152, 0.573576, -0.573576, 0.819152, 449.976249, -36.533048)" id="fill-0-render-5"><g><rect width="81" height="163" style="fill: url(&quot;#fill-color-gradient-render-5-0&quot;);"/></g></pattern></defs><g class="fills" id="fills-0e5a2721-fdfe-805e-8007-0c26658fd54c"><path d="M290.8498840332031,683.982666015625C309.1600341796875,696.803466796875,311.7762756347656,724.706298828125,296.6883850097656,746.25390625C281.60064697265625,767.801513671875,254.48583984375,774.886474609375,236.1757049560547,762.0654296875C217.8655548095703,749.24462890625,215.24932861328125,721.341796875,230.33706665039062,699.794189453125C245.42495727539062,678.24658203125,272.53973388671875,671.16162109375,290.8498840332031,683.982666015625M236.4681396484375,692.45068359375L321.8385009765625,623.0615234375L305.6788330078125,725.6474609375L236.4681396484375,692.45068359375" fill="url(#fill-0-render-5)"/></g></g><g id="shape-0e5a2721-fdfe-805e-8007-0c2670913a06"><defs><linearGradient id="fill-color-gradient-render-6-0" x1="0.5" y1="0" x2="0.5" y2="1" gradientTransform=""><stop offset="0" stop-color="#003fff" stop-opacity="1"/><stop offset="1" stop-color="#88a3f7" stop-opacity="1"/></linearGradient><pattern patternUnits="userSpaceOnUse" x="244.37184335382312" y="423.185747833179" width="60.99999999999977" height="114.00000000000045" patternTransform="matrix(0.819152, 0.573576, -0.573576, 0.819152, 325.133241, -70.819402)" id="fill-0-render-6"><g><rect width="60.99999999999977" height="114.00000000000045" style="fill: url(&quot;#fill-color-gradient-render-6-0&quot;);"/></g></pattern></defs><g class="fills" id="fills-0e5a2721-fdfe-805e-8007-0c2670913a06"><path d="M280.4164123535156,472.267333984375C294.2055358886719,481.922607421875,296.8334655761719,501.996337890625,286.2814025878906,517.06640625C275.72918701171875,532.136474609375,255.96707153320312,536.53271484375,242.1779327392578,526.87744140625C228.38882446289062,517.22216796875,225.76089477539062,497.148193359375,236.3131103515625,482.078125C246.86517333984375,467.00830078125,266.6272888183594,462.612060546875,280.4164123535156,472.267333984375M240.63671875,476.96728515625L301.6689453125,429.365478515625L292.373046875,502.517333984375L240.63671875,476.96728515625" fill="url(#fill-0-render-6)"/></g></g><g id="shape-0e5a2721-fdfe-805e-8007-0c267b1b3cd6"><defs><linearGradient id="fill-color-gradient-render-7-0" x1="0.5" y1="0" x2="0.5" y2="1" gradientTransform=""><stop offset="0" stop-color="#003fff" stop-opacity="1"/><stop offset="1" stop-color="#88a3f7" stop-opacity="1"/></linearGradient><pattern patternUnits="userSpaceOnUse" x="665.922095885517" y="504.7360003648737" width="50.00000000000023" height="110.99999999999955" patternTransform="matrix(0.819152, 0.573576, -0.573576, 0.819152, 446.290017, -294.979098)" id="fill-0-render-7"><g><rect width="50.00000000000023" height="110.99999999999955" style="fill: url(&quot;#fill-color-gradient-render-7-0&quot;);"/></g></pattern></defs><g class="fills" id="fills-0e5a2721-fdfe-805e-8007-0c267b1b3cd6"><path d="M696.3207397460938,552.52587890625C707.6233520507812,560.43994140625,708.4578857421875,578.7783203125,698.1835327148438,593.45166015625C687.9089965820312,608.125244140625,670.3911743164062,613.613037109375,659.0885620117188,605.698974609375C647.7860107421875,597.784912109375,646.951416015625,579.446533203125,657.2259521484375,564.77294921875C667.5003051757812,550.099609375,685.0181884765625,544.61181640625,696.3207397460938,552.52587890625M661.3587036132812,559.74267578125L717.9221801757812,511.388916015625L704.5381469726562,579.581787109375L661.3587036132812,559.74267578125" fill="url(#fill-0-render-7)"/></g></g><g id="shape-0e5a2721-fdfe-805e-8007-0c268892d41a"><defs><linearGradient id="fill-color-gradient-render-8-0" x1="0.5" y1="0" x2="0.5" y2="1" gradientTransform=""><stop offset="0" stop-color="#003fff" stop-opacity="1"/><stop offset="1" stop-color="#88a3f7" stop-opacity="1"/></linearGradient><pattern patternUnits="userSpaceOnUse" x="517.312293324708" y="661.6162538461722" width="50" height="110.99999999999955" patternTransform="matrix(0.819152, 0.573576, -0.573576, 0.819152, 509.397055, -181.368544)" id="fill-0-render-8"><g><rect width="50" height="110.99999999999955" style="fill: url(&quot;#fill-color-gradient-render-8-0&quot;);"/></g></pattern></defs><g class="fills" id="fills-0e5a2721-fdfe-805e-8007-0c268892d41a"><path d="M547.7109375,709.40625C559.0134887695312,717.3203125,559.8482055664062,735.658447265625,549.5736694335938,750.33203125C539.2991333007812,765.005615234375,521.7813720703125,770.4931640625,510.4788513183594,762.5791015625C499.1763000488281,754.6650390625,498.341552734375,736.326904296875,508.6160888671875,721.6533203125C518.890625,706.979736328125,536.4083251953125,701.4921875,547.7109375,709.40625M512.7489013671875,716.623046875L569.3123168945312,668.269287109375L555.9282836914062,736.462158203125L512.7489013671875,716.623046875" fill="url(#fill-0-render-8)"/></g></g></g><g id="shape-68e5d62b-e021-80a2-8007-0c23cd506451"><defs><linearGradient id="fill-color-gradient-render-9-0" x1="0.5" y1="0" x2="0.5" y2="1" gradientTransform=""><stop offset="0.31" stop-color="#ffd70a" stop-opacity="1"/><stop offset="0.72" stop-color="#ffeb2d" stop-opacity="1"/></linearGradient><pattern patternUnits="userSpaceOnUse" x="312" y="409" width="254" height="415" patternTransform="matrix(1.000000, 0.000000, 0.000000, 1.000000, 0.000000, 0.000000)" id="fill-0-render-9"><g><rect width="254" height="415" style="fill: url(&quot;#fill-color-gradient-render-9-0&quot;);"/></g></pattern></defs><g class="fills" id="fills-68e5d62b-e021-80a2-8007-0c23cd506451"><path d="M421,427L359,614L450,605L312,824L566,548L439.90081787109375,548L532,409L421,427" fill="url(#fill-0-render-9)"/></g></g></g></svg>