<svg width="878" xmlns="http://www.w3.org/2000/svg" height="555" id="screenshot-68e5d62b-e021-80a2-8007-0c1f0d280645" viewBox="-76.72 -275.261 878 555" xmlns:xlink="http://www.w3.org/1999/xlink" fill="none" version="1.1"><g id="shape-68e5d62b-e021-80a2-8007-0c1f0d280645"><defs><linearGradient id="fill-color-gradient-render-1-0" x1="0.5" y1="0" x2="0.5" y2="1" gradientTransform=""><stop offset="0" stop-color="#f7f7ff" stop-opacity="1"/><stop offset="1" stop-color="#d6d6d6" stop-opacity="1"/></linearGradient><pattern patternUnits="userSpaceOnUse" x="-76.71968571853768" y="-275.260795805264" width="878" height="555" patternTransform="matrix(1.000000, 0.000000, 0.000000, 1.000000, 0.000000, 0.000000)" id="fill-0-render-1"><g><rect width="878" height="555" style="fill: url(&quot;#fill-color-gradient-render-1-0&quot;);"/></g></pattern></defs><g class="fills" id="fills-68e5d62b-e021-80a2-8007-0c1f0d280645"><path d="M307.2803039550781,-275.26080322265625C422.9536437988281,-275.26080322265625,520.5996704101562,-197.7716064453125,550.7058715820312,-92.11071014404297C553.2254028320312,-92.18682098388672,555.7437133789062,-92.26079559326172,558.2803344726562,-92.26079559326172C617.7810668945312,-92.26079559326172,667.2256469726562,-51.57408905029297,676.6585083007812,1.7163770198822021C677.5137329101562,1.7485425472259521,678.3960571289062,1.7392041683197021,679.2803344726562,1.7392041683197021C746.6140747070312,1.7392041683197021,801.2803344726562,55.95746612548828,801.2803344726562,122.73920440673828C801.2803344726562,138.91375732421875,798.0735473632812,154.35125732421875,792.2566528320312,168.46002197265625C772.3023071289062,232.88671875,712.2197875976562,279.73919677734375,641.2803344726562,279.73919677734375L85.28031158447266,279.73919677734375L82.28031158447266,279.73919677734375L82.28031158447266,279.71002197265625C-5.7480058670043945,277.99920654296875,-76.71968841552734,201.15032958984375,-76.71968841552734,106.73920440673828C-76.71968841552734,21.37891387939453,-18.70332908630371,-49.62499237060547,57.48124313354492,-63.71874237060547C76.96097564697266,-183.573974609375,181.4556121826172,-275.26080322265625,307.2803039550781,-275.26080322265625" fill="url(#fill-0-render-1)"/></g></g></svg>